<?xml version="1.0" encoding="UTF-8"?>
<svg version="1.1" xmlns="http://www.w3.org/2000/svg" width="256" height="256">
<path d="M0 0 C84.48 0 168.96 0 256 0 C256 84.48 256 168.96 256 256 C171.52 256 87.04 256 0 256 C0 171.52 0 87.04 0 0 Z " fill="#363636" transform="translate(0,0)"/>
<path d="M0 0 C10.56 0 21.12 0 32 0 C32 2.31 32 4.62 32 7 C40.91 7 49.82 7 59 7 C59 57.16 59 107.32 59 159 C30.95 159 2.9 159 -26 159 C-26 108.84 -26 58.68 -26 7 C-17.42 7 -8.84 7 0 7 C0 4.69 0 2.38 0 0 Z " fill="#3B3B3B" transform="translate(113,48)"/>
<path d="M0 0 C10.56 0 21.12 0 32 0 C32 2.31 32 4.62 32 7 C40.91 7 49.82 7 59 7 C59 57.16 59 107.32 59 159 C30.95 159 2.9 159 -26 159 C-26 108.84 -26 58.68 -26 7 C-17.42 7 -8.84 7 0 7 C0 4.69 0 2.38 0 0 Z M-19 60 C-19 90.36 -19 120.72 -19 152 C4.76 152 28.52 152 53 152 C53 121.64 53 91.28 53 60 C29.24 60 5.48 60 -19 60 Z " fill="#DF7126" transform="translate(113,48)"/>
<path d="M0 0 C2.31 0 4.62 0 7 0 C7 30.36 7 60.72 7 92 C30.76 92 54.52 92 79 92 C79 61.64 79 31.28 79 0 C80.98 0 82.96 0 85 0 C85 32.67 85 65.34 85 99 C56.95 99 28.9 99 0 99 C0 66.33 0 33.66 0 0 Z " fill="#8E8E8E" transform="translate(87,108)"/>
<path d="M0 0 C4.62 0 9.24 0 14 0 C14 30.36 14 60.72 14 92 C9.38 92 4.76 92 0 92 C0 61.64 0 31.28 0 0 Z " fill="#3B3B3B" transform="translate(152,108)"/>
<path d="M0 0 C3.96 0 7.92 0 12 0 C12 30.36 12 60.72 12 92 C8.04 92 4.08 92 0 92 C0 61.64 0 31.28 0 0 Z " fill="#585858" transform="translate(140,108)"/>
<path d="M0 0 C6.6 0 13.2 0 20 0 C20 17.49 20 34.98 20 53 C13.4 53 6.8 53 0 53 C0 35.51 0 18.02 0 0 Z " fill="#DF7126" transform="translate(152,55)"/>
<path d="M0 0 C10.56 0 21.12 0 32 0 C32 2.31 32 4.62 32 7 C34.31 7 36.62 7 39 7 C39 24.49 39 41.98 39 60 C35.04 60 31.08 60 27 60 C27 55.38 27 50.76 27 46 C28.65 46 30.3 46 32 46 C32 43.69 32 41.38 32 39 C30.35 39 28.7 39 27 39 C27 28.44 27 17.88 27 7 C18.09 7 9.18 7 0 7 C0 4.69 0 2.38 0 0 Z " fill="#E28343" transform="translate(113,48)"/>
<path d="M0 0 C2.31 0 4.62 0 7 0 C7 17.49 7 34.98 7 53 C4.69 53 2.38 53 0 53 C0 35.51 0 18.02 0 0 Z " fill="#E28343" transform="translate(87,55)"/>
<path d="M0 0 C1.98 0 3.96 0 6 0 C6 17.49 6 34.98 6 53 C4.02 53 2.04 53 0 53 C0 35.51 0 18.02 0 0 Z " fill="#E28343" transform="translate(166,55)"/>
<path d="M0 0 C10.56 0 21.12 0 32 0 C32 2.31 32 4.62 32 7 C21.44 7 10.88 7 0 7 C0 4.69 0 2.38 0 0 Z " fill="#8E8E8E" transform="translate(113,48)"/>
<path d="M0 0 C2.31 0 4.62 0 7 0 C7 1.65 7 3.3 7 5 C8.65 5 10.3 5 12 5 C12 7.31 12 9.62 12 12 C10.35 12 8.7 12 7 12 C7 14.31 7 16.62 7 19 C4.69 19 2.38 19 0 19 C0 16.69 0 14.38 0 12 C-2.31 12 -4.62 12 -7 12 C-7 9.69 -7 7.38 -7 5 C-4.69 5 -2.38 5 0 5 C0 3.35 0 1.7 0 0 Z " fill="#3B3B3B" transform="translate(133,82)"/>
</svg>
